<?xml version="1.0" encoding="UTF-8" standalone="no"?>
<!-- Created with Inkscape (http://www.inkscape.org/) -->

<svg
   xmlns:dc="http://purl.org/dc/elements/1.1/"
   xmlns:cc="http://creativecommons.org/ns#"
   xmlns:rdf="http://www.w3.org/1999/02/22-rdf-syntax-ns#"
   xmlns:svg="http://www.w3.org/2000/svg"
   xmlns="http://www.w3.org/2000/svg"
   xmlns:sodipodi="http://sodipodi.sourceforge.net/DTD/sodipodi-0.dtd"
   xmlns:inkscape="http://www.inkscape.org/namespaces/inkscape"
   id="svg2"
   version="1.1"
   inkscape:version="0.48.5 r10040"
   width="196.26076"
   height="196.33624"
   xml:space="preserve"
   sodipodi:docname="brewometerlogo.ai"><metadata
     id="metadata8"><rdf:RDF><cc:Work
         rdf:about=""><dc:format>image/svg+xml</dc:format><dc:type
           rdf:resource="http://purl.org/dc/dcmitype/StillImage" /><dc:title></dc:title></cc:Work></rdf:RDF></metadata><defs
     id="defs6"><clipPath
       clipPathUnits="userSpaceOnUse"
       id="clipPath16"><path
         d="M 0,360 720,360 720,0 0,0 0,360 z"
         id="path18"
         inkscape:connector-curvature="0" /></clipPath></defs><sodipodi:namedview
     pagecolor="#ffffff"
     bordercolor="#666666"
     borderopacity="1"
     objecttolerance="10"
     gridtolerance="10"
     guidetolerance="10"
     inkscape:pageopacity="0"
     inkscape:pageshadow="2"
     inkscape:window-width="1255"
     inkscape:window-height="612"
     id="namedview4"
     showgrid="false"
     fit-margin-top="0"
     fit-margin-left="0"
     fit-margin-right="0"
     fit-margin-bottom="0"
     inkscape:zoom="0.41111111"
     inkscape:cx="-192.4695"
     inkscape:cy="104.324"
     inkscape:window-x="0"
     inkscape:window-y="0"
     inkscape:window-maximized="0"
     inkscape:current-layer="g14" /><g
     id="g10"
     inkscape:groupmode="layer"
     inkscape:label="brewometerlogo"
     transform="matrix(1.25,0,0,-1.25,-642.4695,317.01225)"><g
       clip-path="url(#clipPath16)"
       id="g14"><g
         transform="translate(535.6851,213.1343)"
         id="g520"><path
           inkscape:connector-curvature="0"
           id="path522"
           style="fill:#373535;fill-opacity:1;fill-rule:nonzero;stroke:none"
           d="m 0,0 -9.622,3.949 c 0,0 14.048,-1.941 9.182,11.919 L 6.024,7.737 0,0 z" /></g><g
         transform="translate(547.5601,226.6592)"
         id="g524"><path
           inkscape:connector-curvature="0"
           id="path526"
           style="fill:#373535;fill-opacity:1;fill-rule:nonzero;stroke:none"
           d="m 0,0 -8.246,6.338 c 0,0 13.046,-5.566 11.991,9.085 L 7.845,5.881 0,0 z" /></g><g
         transform="translate(562.2017,236.4058)"
         id="g528"><path
           inkscape:connector-curvature="0"
           id="path530"
           style="fill:#373535;fill-opacity:1;fill-rule:nonzero;stroke:none"
           d="m 0,0 -6.338,8.244 c 0,0 11.175,-8.733 13.925,5.699 L 9.095,3.664 0,0 z" /></g><g
         transform="translate(579.189,242.1226)"
         id="g532"><path
           inkscape:connector-curvature="0"
           id="path534"
           style="fill:#373535;fill-opacity:1;fill-rule:nonzero;stroke:none"
           d="m 0,0 -3.959,9.618 c 0,0 8.498,-11.353 14.934,1.855 L 9.737,1.154 0,0 z" /></g><g
         transform="translate(596.8667,243.2998)"
         id="g536"><path
           inkscape:connector-curvature="0"
           id="path538"
           style="fill:#373535;fill-opacity:1;fill-rule:nonzero;stroke:none"
           d="m 0,0 -1.35,10.31 c 0,0 5.29,-13.154 14.907,-2.047 L 9.705,-1.39 0,0 z" /></g><g
         transform="translate(614.3667,239.8506)"
         id="g540"><path
           inkscape:connector-curvature="0"
           id="path542"
           style="fill:#373535;fill-opacity:1;fill-rule:nonzero;stroke:none"
           d="m 0,0 1.363,10.311 c 0,0 1.703,-14.081 13.868,-5.842 L 9.016,-3.854 0,0 z" /></g><g
         transform="translate(630.3843,231.9795)"
         id="g544"><path
           inkscape:connector-curvature="0"
           id="path546"
           style="fill:#373535;fill-opacity:1;fill-rule:nonzero;stroke:none"
           d="m 0,0 3.99,9.603 c 0,0 -2.002,-14.038 11.882,-9.232 L 7.709,-6.059 0,0 z" /></g><g
         transform="translate(644.0806,219.9272)"
         id="g548"><path
           inkscape:connector-curvature="0"
           id="path550"
           style="fill:#373535;fill-opacity:1;fill-rule:nonzero;stroke:none"
           d="m 0,0 6.39,8.203 c 0,0 -5.651,-13.004 9.013,-12.047 L 5.827,-7.883 0,0 z" /></g><g
         transform="translate(653.7651,205.3525)"
         id="g552"><path
           inkscape:connector-curvature="0"
           id="path554"
           style="fill:#373535;fill-opacity:1;fill-rule:nonzero;stroke:none"
           d="m 0,0 8.268,6.311 c 0,0 -8.77,-11.144 5.652,-13.942 L 3.636,-9.107 0,0 z" /></g><g
         transform="translate(659.4692,188.6069)"
         id="g556"><path
           inkscape:connector-curvature="0"
           id="path558"
           style="fill:#373535;fill-opacity:1;fill-rule:nonzero;stroke:none"
           d="m 0,0 9.609,3.974 c 0,0 -11.336,-8.515 1.881,-14.928 L 1.173,-9.735 0,0 z" /></g><g
         transform="translate(660.6782,170.9556)"
         id="g560"><path
           inkscape:connector-curvature="0"
           id="path562"
           style="fill:#373535;fill-opacity:1;fill-rule:nonzero;stroke:none"
           d="m 0,0 10.306,1.372 c 0,0 -13.142,-5.314 -2.017,-14.907 L -1.366,-9.705 0,0 z" /></g><g
         transform="translate(657.2397,153.3809)"
         id="g564"><path
           inkscape:connector-curvature="0"
           id="path566"
           style="fill:#373535;fill-opacity:1;fill-rule:nonzero;stroke:none"
           d="m 0,0 10.313,-1.354 c 0,0 -14.076,-1.716 -5.823,-13.874 L -3.841,-9.019 0,0 z" /></g><g
         transform="translate(649.3774,137.3369)"
         id="g568"><path
           inkscape:connector-curvature="0"
           id="path570"
           style="fill:#373535;fill-opacity:1;fill-rule:nonzero;stroke:none"
           d="m 0,0 9.605,-3.984 c 0,0 -14.037,1.997 -9.224,-11.884 L -6.054,-7.712 0,0 z" /></g><g
         transform="translate(637.5112,123.8003)"
         id="g572"><path
           inkscape:connector-curvature="0"
           id="path574"
           style="fill:#373535;fill-opacity:1;fill-rule:nonzero;stroke:none"
           d="m 0,0 8.244,-6.339 c 0,0 -13.041,5.566 -11.992,-9.086 L -7.843,-5.877 0,0 z" /></g><g
         transform="translate(622.6958,113.8828)"
         id="g576"><path
           inkscape:connector-curvature="0"
           id="path578"
           style="fill:#373535;fill-opacity:1;fill-rule:nonzero;stroke:none"
           d="m 0,0 6.339,-8.246 c 0,0 -11.172,8.732 -13.925,-5.699 L -9.092,-3.664 0,0 z" /></g><g
         transform="translate(605.9204,108.125)"
         id="g580"><path
           inkscape:connector-curvature="0"
           id="path582"
           style="fill:#373535;fill-opacity:1;fill-rule:nonzero;stroke:none"
           d="m 0,0 4.019,-9.594 c 0,0 -8.567,11.295 -14.916,-1.949 L -9.728,-1.221 0,0 z" /></g><g
         transform="translate(588.229,106.8438)"
         id="g584"><path
           inkscape:connector-curvature="0"
           id="path586"
           style="fill:#373535;fill-opacity:1;fill-rule:nonzero;stroke:none"
           d="m 0,0 1.437,-10.303 c 0,0 -5.397,13.113 -14.923,1.932 L -9.713,1.307 0,0 z" /></g><g
         transform="translate(570.4839,110.2373)"
         id="g588"><path
           inkscape:connector-curvature="0"
           id="path590"
           style="fill:#373535;fill-opacity:1;fill-rule:nonzero;stroke:none"
           d="m 0,0 -1.297,-10.319 c 0,0 -1.797,14.064 -13.906,5.748 L -9.039,3.791 0,0 z" /></g><g
         transform="translate(554.3364,118.334)"
         id="g592"><path
           inkscape:connector-curvature="0"
           id="path594"
           style="fill:#373535;fill-opacity:1;fill-rule:nonzero;stroke:none"
           d="m 0,0 -3.92,-9.633 c 0,0 1.903,14.051 -11.946,9.151 L -7.751,6.002 0,0 z" /></g><g
         transform="translate(541.1519,129.8237)"
         id="g596"><path
           inkscape:connector-curvature="0"
           id="path598"
           style="fill:#373535;fill-opacity:1;fill-rule:nonzero;stroke:none"
           d="m 0,0 -6.285,-8.284 c 0,0 5.477,13.074 -9.168,11.931 L -5.933,7.808 0,0 z" /></g><g
         transform="translate(530.9868,144.7271)"
         id="g600"><path
           inkscape:connector-curvature="0"
           id="path602"
           style="fill:#373535;fill-opacity:1;fill-rule:nonzero;stroke:none"
           d="m 0,0 -8.228,-6.359 c 0,0 8.701,11.195 -5.734,13.912 L -3.687,9.083 0,0 z" /></g><g
         transform="translate(525.5923,161.5806)"
         id="g604"><path
           inkscape:connector-curvature="0"
           id="path606"
           style="fill:#373535;fill-opacity:1;fill-rule:nonzero;stroke:none"
           d="m 0,0 -9.591,-4.014 c 0,0 11.299,8.561 -1.945,14.92 L -1.214,9.729 0,0 z" /></g><g
         transform="translate(524.2866,179.6841)"
         id="g608"><path
           inkscape:connector-curvature="0"
           id="path610"
           style="fill:#373535;fill-opacity:1;fill-rule:nonzero;stroke:none"
           d="m 0,0 -10.311,-1.353 c 0,0 13.154,5.292 2.045,14.905 L 1.385,9.704 0,0 z" /></g><g
         transform="translate(527.6558,197.2095)"
         id="g612"><path
           inkscape:connector-curvature="0"
           id="path614"
           style="fill:#373535;fill-opacity:1;fill-rule:nonzero;stroke:none"
           d="m 0,0 -10.31,1.355 c 0,0 14.075,1.718 5.827,13.872 L 3.847,9.019 0,0 z" /></g><g
         transform="translate(657.5532,175.0771)"
         id="g616"><path
           inkscape:connector-curvature="0"
           id="path618"
           style="fill:#373535;fill-opacity:1;fill-rule:nonzero;stroke:none"
           d="m 0,0 c 0,-35.939 -29.136,-65.075 -65.073,-65.075 -35.938,0 -65.073,29.136 -65.073,65.075 0,35.939 29.135,65.073 65.073,65.073 C -29.136,65.073 0,35.939 0,0" /></g><g
         transform="translate(657.5532,175.0771)"
         id="g620"><path
           inkscape:connector-curvature="0"
           id="path622"
           style="fill:none;stroke:#373535;stroke-width:0.82099998;stroke-linecap:butt;stroke-linejoin:miter;stroke-miterlimit:10;stroke-opacity:1;stroke-dasharray:none"
           d="m 0,0 c 0,-35.939 -29.136,-65.075 -65.073,-65.075 -35.938,0 -65.073,29.136 -65.073,65.075 0,35.939 29.135,65.073 65.073,65.073 C -29.136,65.073 0,35.939 0,0 z" /></g><g
         transform="translate(637.312,174.6792)"
         id="g624"><path
           inkscape:connector-curvature="0"
           id="path626"
           style="fill:none;stroke:#ffffff;stroke-width:1.40100002;stroke-linecap:butt;stroke-linejoin:miter;stroke-miterlimit:10;stroke-opacity:1;stroke-dasharray:none"
           d="m 0,0 c 0,-24.765 -20.072,-44.839 -44.835,-44.839 -24.763,0 -44.836,20.074 -44.836,44.839 0,24.761 20.073,44.835 44.836,44.835 C -20.072,44.835 0,24.761 0,0 z" /></g><g
         transform="translate(592.4771,219.5142)"
         id="g628"><path
           inkscape:connector-curvature="0"
           id="path630"
           style="fill:none;stroke:#ffffff;stroke-width:1.75100005;stroke-linecap:butt;stroke-linejoin:miter;stroke-miterlimit:10;stroke-opacity:1;stroke-dasharray:none"
           d="M 0,0 0,12.609" /></g><g
         transform="translate(606.3501,217.3149)"
         id="g632"><path
           inkscape:connector-curvature="0"
           id="path634"
           style="fill:none;stroke:#ffffff;stroke-width:1.75100005;stroke-linecap:butt;stroke-linejoin:miter;stroke-miterlimit:10;stroke-opacity:1;stroke-dasharray:none"
           d="M 0,0 3.9,11.991" /></g><g
         transform="translate(618.8618,210.9302)"
         id="g636"><path
           inkscape:connector-curvature="0"
           id="path638"
           style="fill:none;stroke:#ffffff;stroke-width:1.75100005;stroke-linecap:butt;stroke-linejoin:miter;stroke-miterlimit:10;stroke-opacity:1;stroke-dasharray:none"
           d="M 0,0 7.42,10.194" /></g><g
         transform="translate(628.7827,200.9893)"
         id="g640"><path
           inkscape:connector-curvature="0"
           id="path642"
           style="fill:none;stroke:#ffffff;stroke-width:1.75100005;stroke-linecap:butt;stroke-linejoin:miter;stroke-miterlimit:10;stroke-opacity:1;stroke-dasharray:none"
           d="M 0,0 10.213,7.4" /></g><g
         transform="translate(635.1411,188.4658)"
         id="g644"><path
           inkscape:connector-curvature="0"
           id="path646"
           style="fill:none;stroke:#ffffff;stroke-width:1.75100005;stroke-linecap:butt;stroke-linejoin:miter;stroke-miterlimit:10;stroke-opacity:1;stroke-dasharray:none"
           d="M 0,0 12.002,3.879" /></g><g
         transform="translate(637.312,174.5894)"
         id="g648"><path
           inkscape:connector-curvature="0"
           id="path650"
           style="fill:none;stroke:#ffffff;stroke-width:1.75100005;stroke-linecap:butt;stroke-linejoin:miter;stroke-miterlimit:10;stroke-opacity:1;stroke-dasharray:none"
           d="M 0,0 12.616,-0.023" /></g><g
         transform="translate(635.0894,160.7212)"
         id="g652"><path
           inkscape:connector-curvature="0"
           id="path654"
           style="fill:none;stroke:#ffffff;stroke-width:1.75100005;stroke-linecap:butt;stroke-linejoin:miter;stroke-miterlimit:10;stroke-opacity:1;stroke-dasharray:none"
           d="M 0,0 11.984,-3.922" /></g><g
         transform="translate(628.6792,148.2246)"
         id="g656"><path
           inkscape:connector-curvature="0"
           id="path658"
           style="fill:none;stroke:#ffffff;stroke-width:1.75100005;stroke-linecap:butt;stroke-linejoin:miter;stroke-miterlimit:10;stroke-opacity:1;stroke-dasharray:none"
           d="M 0,0 10.187,-7.44" /></g><g
         transform="translate(618.7202,138.3218)"
         id="g660"><path
           inkscape:connector-curvature="0"
           id="path662"
           style="fill:none;stroke:#ffffff;stroke-width:1.75100005;stroke-linecap:butt;stroke-linejoin:miter;stroke-miterlimit:10;stroke-opacity:1;stroke-dasharray:none"
           d="M 0,0 7.382,-10.224" /></g><g
         transform="translate(606.187,131.9883)"
         id="g664"><path
           inkscape:connector-curvature="0"
           id="path666"
           style="fill:none;stroke:#ffffff;stroke-width:1.75100005;stroke-linecap:butt;stroke-linejoin:miter;stroke-miterlimit:10;stroke-opacity:1;stroke-dasharray:none"
           d="M 0,0 3.854,-12.009" /></g><g
         transform="translate(592.3062,129.8403)"
         id="g668"><path
           inkscape:connector-curvature="0"
           id="path670"
           style="fill:none;stroke:#ffffff;stroke-width:1.75100005;stroke-linecap:butt;stroke-linejoin:miter;stroke-miterlimit:10;stroke-opacity:1;stroke-dasharray:none"
           d="M 0,0 -0.047,-12.611" /></g><g
         transform="translate(578.4429,132.0962)"
         id="g672"><path
           inkscape:connector-curvature="0"
           id="path674"
           style="fill:none;stroke:#ffffff;stroke-width:1.75100005;stroke-linecap:butt;stroke-linejoin:miter;stroke-miterlimit:10;stroke-opacity:1;stroke-dasharray:none"
           d="M 0,0 -3.947,-11.981" /></g><g
         transform="translate(565.9556,138.5244)"
         id="g676"><path
           inkscape:connector-curvature="0"
           id="path678"
           style="fill:none;stroke:#ffffff;stroke-width:1.75100005;stroke-linecap:butt;stroke-linejoin:miter;stroke-miterlimit:10;stroke-opacity:1;stroke-dasharray:none"
           d="M 0,0 -7.456,-10.167" /></g><g
         transform="translate(556.0728,148.5049)"
         id="g680"><path
           inkscape:connector-curvature="0"
           id="path682"
           style="fill:none;stroke:#ffffff;stroke-width:1.75100005;stroke-linecap:butt;stroke-linejoin:miter;stroke-miterlimit:10;stroke-opacity:1;stroke-dasharray:none"
           d="M 0,0 -10.235,-7.363" /></g><g
         transform="translate(549.7622,161.0527)"
         id="g684"><path
           inkscape:connector-curvature="0"
           id="path686"
           style="fill:none;stroke:#ffffff;stroke-width:1.75100005;stroke-linecap:butt;stroke-linejoin:miter;stroke-miterlimit:10;stroke-opacity:1;stroke-dasharray:none"
           d="M 0,0 -12.01,-3.831" /></g><g
         transform="translate(547.6431,174.9375)"
         id="g688"><path
           inkscape:connector-curvature="0"
           id="path690"
           style="fill:none;stroke:#ffffff;stroke-width:1.75100005;stroke-linecap:butt;stroke-linejoin:miter;stroke-miterlimit:10;stroke-opacity:1;stroke-dasharray:none"
           d="M 0,0 -12.607,0.073" /></g><g
         transform="translate(549.9253,188.7959)"
         id="g692"><path
           inkscape:connector-curvature="0"
           id="path694"
           style="fill:none;stroke:#ffffff;stroke-width:1.75100005;stroke-linecap:butt;stroke-linejoin:miter;stroke-miterlimit:10;stroke-opacity:1;stroke-dasharray:none"
           d="M 0,0 -11.971,3.97" /></g><g
         transform="translate(556.3804,201.2676)"
         id="g696"><path
           inkscape:connector-curvature="0"
           id="path698"
           style="fill:none;stroke:#ffffff;stroke-width:1.75100005;stroke-linecap:butt;stroke-linejoin:miter;stroke-miterlimit:10;stroke-opacity:1;stroke-dasharray:none"
           d="M 0,0 -10.152,7.48" /></g><g
         transform="translate(566.3804,211.1323)"
         id="g700"><path
           inkscape:connector-curvature="0"
           id="path702"
           style="fill:none;stroke:#ffffff;stroke-width:1.75100005;stroke-linecap:butt;stroke-linejoin:miter;stroke-miterlimit:10;stroke-opacity:1;stroke-dasharray:none"
           d="M 0,0 -7.344,10.252" /></g><g
         transform="translate(578.939,217.4214)"
         id="g704"><path
           inkscape:connector-curvature="0"
           id="path706"
           style="fill:none;stroke:#ffffff;stroke-width:1.75100005;stroke-linecap:butt;stroke-linejoin:miter;stroke-miterlimit:10;stroke-opacity:1;stroke-dasharray:none"
           d="M 0,0 -3.805,12.019" /></g><g
         transform="translate(599.4937,218.9634)"
         id="g708"><path
           inkscape:connector-curvature="0"
           id="path710"
           style="fill:none;stroke:#ffffff;stroke-width:1.40100002;stroke-linecap:butt;stroke-linejoin:miter;stroke-miterlimit:10;stroke-opacity:1;stroke-dasharray:none"
           d="M 0,0 1.316,8.303" /></g><g
         transform="translate(612.8511,214.6182)"
         id="g712"><path
           inkscape:connector-curvature="0"
           id="path714"
           style="fill:none;stroke:#ffffff;stroke-width:1.40100002;stroke-linecap:butt;stroke-linejoin:miter;stroke-miterlimit:10;stroke-opacity:1;stroke-dasharray:none"
           d="M 0,0 3.819,7.49" /></g><g
         transform="translate(624.2085,206.356)"
         id="g716"><path
           inkscape:connector-curvature="0"
           id="path718"
           style="fill:none;stroke:#ffffff;stroke-width:1.40100002;stroke-linecap:butt;stroke-linejoin:miter;stroke-miterlimit:10;stroke-opacity:1;stroke-dasharray:none"
           d="M 0,0 5.947,5.94" /></g><g
         transform="translate(632.4526,194.9854)"
         id="g720"><path
           inkscape:connector-curvature="0"
           id="path722"
           style="fill:none;stroke:#ffffff;stroke-width:1.40100002;stroke-linecap:butt;stroke-linejoin:miter;stroke-miterlimit:10;stroke-opacity:1;stroke-dasharray:none"
           d="M 0,0 7.494,3.808" /></g><g
         transform="translate(636.7729,181.6196)"
         id="g724"><path
           inkscape:connector-curvature="0"
           id="path726"
           style="fill:none;stroke:#ffffff;stroke-width:1.40100002;stroke-linecap:butt;stroke-linejoin:miter;stroke-miterlimit:10;stroke-opacity:1;stroke-dasharray:none"
           d="M 0,0 8.306,1.305" /></g><g
         transform="translate(636.7466,167.5742)"
         id="g728"><path
           inkscape:connector-curvature="0"
           id="path730"
           style="fill:none;stroke:#ffffff;stroke-width:1.40100002;stroke-linecap:butt;stroke-linejoin:miter;stroke-miterlimit:10;stroke-opacity:1;stroke-dasharray:none"
           d="M 0,0 8.306,-1.329" /></g><g
         transform="translate(632.3813,154.2266)"
         id="g732"><path
           inkscape:connector-curvature="0"
           id="path734"
           style="fill:none;stroke:#ffffff;stroke-width:1.40100002;stroke-linecap:butt;stroke-linejoin:miter;stroke-miterlimit:10;stroke-opacity:1;stroke-dasharray:none"
           d="M 0,0 7.479,-3.834" /></g><g
         transform="translate(624.0942,142.8862)"
         id="g736"><path
           inkscape:connector-curvature="0"
           id="path738"
           style="fill:none;stroke:#ffffff;stroke-width:1.40100002;stroke-linecap:butt;stroke-linejoin:miter;stroke-miterlimit:10;stroke-opacity:1;stroke-dasharray:none"
           d="M 0,0 5.929,-5.961" /></g><g
         transform="translate(612.7085,134.6665)"
         id="g740"><path
           inkscape:connector-curvature="0"
           id="path742"
           style="fill:none;stroke:#ffffff;stroke-width:1.40100002;stroke-linecap:butt;stroke-linejoin:miter;stroke-miterlimit:10;stroke-opacity:1;stroke-dasharray:none"
           d="M 0,0 3.793,-7.504" /></g><g
         transform="translate(599.3345,130.3696)"
         id="g744"><path
           inkscape:connector-curvature="0"
           id="path746"
           style="fill:none;stroke:#ffffff;stroke-width:1.40100002;stroke-linecap:butt;stroke-linejoin:miter;stroke-miterlimit:10;stroke-opacity:1;stroke-dasharray:none"
           d="M 0,0 1.285,-8.307" /></g><g
         transform="translate(585.2905,130.4209)"
         id="g748"><path
           inkscape:connector-curvature="0"
           id="path750"
           style="fill:none;stroke:#ffffff;stroke-width:1.40100002;stroke-linecap:butt;stroke-linejoin:miter;stroke-miterlimit:10;stroke-opacity:1;stroke-dasharray:none"
           d="M 0,0 -1.349,-8.297" /></g><g
         transform="translate(571.9517,134.8159)"
         id="g752"><path
           inkscape:connector-curvature="0"
           id="path754"
           style="fill:none;stroke:#ffffff;stroke-width:1.40100002;stroke-linecap:butt;stroke-linejoin:miter;stroke-miterlimit:10;stroke-opacity:1;stroke-dasharray:none"
           d="M 0,0 -3.852,-7.473" /></g><g
         transform="translate(560.6255,143.125)"
         id="g756"><path
           inkscape:connector-curvature="0"
           id="path758"
           style="fill:none;stroke:#ffffff;stroke-width:1.40100002;stroke-linecap:butt;stroke-linejoin:miter;stroke-miterlimit:10;stroke-opacity:1;stroke-dasharray:none"
           d="M 0,0 -5.971,-5.917" /></g><g
         transform="translate(552.4263,154.5283)"
         id="g760"><path
           inkscape:connector-curvature="0"
           id="path762"
           style="fill:none;stroke:#ffffff;stroke-width:1.40100002;stroke-linecap:butt;stroke-linejoin:miter;stroke-miterlimit:10;stroke-opacity:1;stroke-dasharray:none"
           d="M 0,0 -7.51,-3.781" /></g><g
         transform="translate(548.1577,167.9092)"
         id="g764"><path
           inkscape:connector-curvature="0"
           id="path766"
           style="fill:none;stroke:#ffffff;stroke-width:1.40100002;stroke-linecap:butt;stroke-linejoin:miter;stroke-miterlimit:10;stroke-opacity:1;stroke-dasharray:none"
           d="M 0,0 -8.313,-1.274" /></g><g
         transform="translate(548.2388,181.9531)"
         id="g768"><path
           inkscape:connector-curvature="0"
           id="path770"
           style="fill:none;stroke:#ffffff;stroke-width:1.40100002;stroke-linecap:butt;stroke-linejoin:miter;stroke-miterlimit:10;stroke-opacity:1;stroke-dasharray:none"
           d="M 0,0 -8.298,1.36" /></g><g
         transform="translate(552.6597,195.2837)"
         id="g772"><path
           inkscape:connector-curvature="0"
           id="path774"
           style="fill:none;stroke:#ffffff;stroke-width:1.40100002;stroke-linecap:butt;stroke-linejoin:miter;stroke-miterlimit:10;stroke-opacity:1;stroke-dasharray:none"
           d="M 0,0 -7.471,3.859" /></g><g
         transform="translate(560.9868,206.5913)"
         id="g776"><path
           inkscape:connector-curvature="0"
           id="path778"
           style="fill:none;stroke:#ffffff;stroke-width:1.40100002;stroke-linecap:butt;stroke-linejoin:miter;stroke-miterlimit:10;stroke-opacity:1;stroke-dasharray:none"
           d="M 0,0 -5.903,5.982" /></g><g
         transform="translate(572.4077,214.7676)"
         id="g780"><path
           inkscape:connector-curvature="0"
           id="path782"
           style="fill:none;stroke:#ffffff;stroke-width:1.40100002;stroke-linecap:butt;stroke-linejoin:miter;stroke-miterlimit:10;stroke-opacity:1;stroke-dasharray:none"
           d="M 0,0 -3.767,7.518" /></g><g
         transform="translate(585.7944,219.0132)"
         id="g784"><path
           inkscape:connector-curvature="0"
           id="path786"
           style="fill:none;stroke:#ffffff;stroke-width:1.40100002;stroke-linecap:butt;stroke-linejoin:miter;stroke-miterlimit:10;stroke-opacity:1;stroke-dasharray:none"
           d="M 0,0 -1.257,8.309" /></g><g
         transform="translate(596.1138,219.3647)"
         id="g788"><path
           inkscape:connector-curvature="0"
           id="path790"
           style="fill:none;stroke:#ffffff;stroke-width:1.051;stroke-linecap:butt;stroke-linejoin:miter;stroke-miterlimit:4;stroke-opacity:1;stroke-dasharray:none"
           d="M 0,0 0.315,3.904" /></g><g
         transform="translate(603.0591,218.2456)"
         id="g792"><path
           inkscape:connector-curvature="0"
           id="path794"
           style="fill:none;stroke:#ffffff;stroke-width:1.051;stroke-linecap:butt;stroke-linejoin:miter;stroke-miterlimit:4;stroke-opacity:1;stroke-dasharray:none"
           d="M 0,0 0.926,3.806" /></g><g
         transform="translate(609.7495,216.0513)"
         id="g796"><path
           inkscape:connector-curvature="0"
           id="path798"
           style="fill:none;stroke:#ffffff;stroke-width:1.051;stroke-linecap:butt;stroke-linejoin:miter;stroke-miterlimit:4;stroke-opacity:1;stroke-dasharray:none"
           d="M 0,0 1.508,3.617" /></g><g
         transform="translate(616.0103,212.8389)"
         id="g800"><path
           inkscape:connector-curvature="0"
           id="path802"
           style="fill:none;stroke:#ffffff;stroke-width:1.051;stroke-linecap:butt;stroke-linejoin:miter;stroke-miterlimit:4;stroke-opacity:1;stroke-dasharray:none"
           d="M 0,0 2.054,3.335" /></g><g
         transform="translate(621.6929,208.6875)"
         id="g804"><path
           inkscape:connector-curvature="0"
           id="path806"
           style="fill:none;stroke:#ffffff;stroke-width:1.051;stroke-linecap:butt;stroke-linejoin:miter;stroke-miterlimit:4;stroke-opacity:1;stroke-dasharray:none"
           d="M 0,0 2.55,2.974" /></g><g
         transform="translate(626.6548,203.6973)"
         id="g808"><path
           inkscape:connector-curvature="0"
           id="path810"
           style="fill:none;stroke:#ffffff;stroke-width:1.051;stroke-linecap:butt;stroke-linejoin:miter;stroke-miterlimit:4;stroke-opacity:1;stroke-dasharray:none"
           d="M 0,0 2.986,2.536" /></g><g
         transform="translate(630.7739,197.9937)"
         id="g812"><path
           inkscape:connector-curvature="0"
           id="path814"
           style="fill:none;stroke:#ffffff;stroke-width:1.051;stroke-linecap:butt;stroke-linejoin:miter;stroke-miterlimit:4;stroke-opacity:1;stroke-dasharray:none"
           d="M 0,0 3.349,2.034" /></g><g
         transform="translate(633.9507,191.7114)"
         id="g816"><path
           inkscape:connector-curvature="0"
           id="path818"
           style="fill:none;stroke:#ffffff;stroke-width:1.051;stroke-linecap:butt;stroke-linejoin:miter;stroke-miterlimit:4;stroke-opacity:1;stroke-dasharray:none"
           d="M 0,0 3.623,1.489" /></g><g
         transform="translate(636.106,185.0112)"
         id="g820"><path
           inkscape:connector-curvature="0"
           id="path822"
           style="fill:none;stroke:#ffffff;stroke-width:1.051;stroke-linecap:butt;stroke-linejoin:miter;stroke-miterlimit:4;stroke-opacity:1;stroke-dasharray:none"
           d="M 0,0 3.812,0.904" /></g><g
         transform="translate(637.1812,178.0591)"
         id="g824"><path
           inkscape:connector-curvature="0"
           id="path826"
           style="fill:none;stroke:#ffffff;stroke-width:1.051;stroke-linecap:butt;stroke-linejoin:miter;stroke-miterlimit:4;stroke-opacity:1;stroke-dasharray:none"
           d="M 0,0 3.91,0.297" /></g><g
         transform="translate(637.1606,171.0205)"
         id="g828"><path
           inkscape:connector-curvature="0"
           id="path830"
           style="fill:none;stroke:#ffffff;stroke-width:1.051;stroke-linecap:butt;stroke-linejoin:miter;stroke-miterlimit:4;stroke-opacity:1;stroke-dasharray:none"
           d="M 0,0 3.906,-0.318" /></g><g
         transform="translate(636.0347,164.0713)"
         id="g832"><path
           inkscape:connector-curvature="0"
           id="path834"
           style="fill:none;stroke:#ffffff;stroke-width:1.051;stroke-linecap:butt;stroke-linejoin:miter;stroke-miterlimit:4;stroke-opacity:1;stroke-dasharray:none"
           d="M 0,0 3.81,-0.925" /></g><g
         transform="translate(633.8442,157.3896)"
         id="g836"><path
           inkscape:connector-curvature="0"
           id="path838"
           style="fill:none;stroke:#ffffff;stroke-width:1.051;stroke-linecap:butt;stroke-linejoin:miter;stroke-miterlimit:4;stroke-opacity:1;stroke-dasharray:none"
           d="M 0,0 3.613,-1.513" /></g><g
         transform="translate(630.6265,151.1289)"
         id="g840"><path
           inkscape:connector-curvature="0"
           id="path842"
           style="fill:none;stroke:#ffffff;stroke-width:1.051;stroke-linecap:butt;stroke-linejoin:miter;stroke-miterlimit:4;stroke-opacity:1;stroke-dasharray:none"
           d="M 0,0 3.337,-2.06" /></g><g
         transform="translate(626.4702,145.4482)"
         id="g844"><path
           inkscape:connector-curvature="0"
           id="path846"
           style="fill:none;stroke:#ffffff;stroke-width:1.051;stroke-linecap:butt;stroke-linejoin:miter;stroke-miterlimit:4;stroke-opacity:1;stroke-dasharray:none"
           d="M 0,0 2.973,-2.556" /></g><g
         transform="translate(621.478,140.4897)"
         id="g848"><path
           inkscape:connector-curvature="0"
           id="path850"
           style="fill:none;stroke:#ffffff;stroke-width:1.051;stroke-linecap:butt;stroke-linejoin:miter;stroke-miterlimit:4;stroke-opacity:1;stroke-dasharray:none"
           d="M 0,0 2.534,-2.99" /></g><g
         transform="translate(615.77,136.373)"
         id="g852"><path
           inkscape:connector-curvature="0"
           id="path854"
           style="fill:none;stroke:#ffffff;stroke-width:1.051;stroke-linecap:butt;stroke-linejoin:miter;stroke-miterlimit:4;stroke-opacity:1;stroke-dasharray:none"
           d="M 0,0 2.036,-3.348" /></g><g
         transform="translate(609.4878,133.2007)"
         id="g856"><path
           inkscape:connector-curvature="0"
           id="path858"
           style="fill:none;stroke:#ffffff;stroke-width:1.051;stroke-linecap:butt;stroke-linejoin:miter;stroke-miterlimit:4;stroke-opacity:1;stroke-dasharray:none"
           d="M 0,0 1.487,-3.629" /></g><g
         transform="translate(602.7876,131.0513)"
         id="g860"><path
           inkscape:connector-curvature="0"
           id="path862"
           style="fill:none;stroke:#ffffff;stroke-width:1.051;stroke-linecap:butt;stroke-linejoin:miter;stroke-miterlimit:4;stroke-opacity:1;stroke-dasharray:none"
           d="M 0,0 0.9,-3.814" /></g><g
         transform="translate(595.8315,129.9766)"
         id="g864"><path
           inkscape:connector-curvature="0"
           id="path866"
           style="fill:none;stroke:#ffffff;stroke-width:1.051;stroke-linecap:butt;stroke-linejoin:miter;stroke-miterlimit:4;stroke-opacity:1;stroke-dasharray:none"
           d="M 0,0 0.296,-3.911" /></g><g
         transform="translate(588.7964,130.0029)"
         id="g868"><path
           inkscape:connector-curvature="0"
           id="path870"
           style="fill:none;stroke:#ffffff;stroke-width:1.051;stroke-linecap:butt;stroke-linejoin:miter;stroke-miterlimit:4;stroke-opacity:1;stroke-dasharray:none"
           d="M 0,0 -0.325,-3.911" /></g><g
         transform="translate(581.8511,131.1274)"
         id="g872"><path
           inkscape:connector-curvature="0"
           id="path874"
           style="fill:none;stroke:#ffffff;stroke-width:1.051;stroke-linecap:butt;stroke-linejoin:miter;stroke-miterlimit:4;stroke-opacity:1;stroke-dasharray:none"
           d="M 0,0 -0.933,-3.808" /></g><g
         transform="translate(575.1636,133.3281)"
         id="g876"><path
           inkscape:connector-curvature="0"
           id="path878"
           style="fill:none;stroke:#ffffff;stroke-width:1.051;stroke-linecap:butt;stroke-linejoin:miter;stroke-miterlimit:4;stroke-opacity:1;stroke-dasharray:none"
           d="M 0,0 -1.513,-3.615" /></g><g
         transform="translate(568.9077,136.5508)"
         id="g880"><path
           inkscape:connector-curvature="0"
           id="path882"
           style="fill:none;stroke:#ffffff;stroke-width:1.051;stroke-linecap:butt;stroke-linejoin:miter;stroke-miterlimit:4;stroke-opacity:1;stroke-dasharray:none"
           d="M 0,0 -2.064,-3.339" /></g><g
         transform="translate(563.23,140.707)"
         id="g884"><path
           inkscape:connector-curvature="0"
           id="path886"
           style="fill:none;stroke:#ffffff;stroke-width:1.051;stroke-linecap:butt;stroke-linejoin:miter;stroke-miterlimit:4;stroke-opacity:1;stroke-dasharray:none"
           d="M 0,0 -2.562,-2.969" /></g><g
         transform="translate(558.2759,145.7021)"
         id="g888"><path
           inkscape:connector-curvature="0"
           id="path890"
           style="fill:none;stroke:#ffffff;stroke-width:1.051;stroke-linecap:butt;stroke-linejoin:miter;stroke-miterlimit:4;stroke-opacity:1;stroke-dasharray:none"
           d="M 0,0 -2.994,-2.534" /></g><g
         transform="translate(554.1626,151.4106)"
         id="g892"><path
           inkscape:connector-curvature="0"
           id="path894"
           style="fill:none;stroke:#ffffff;stroke-width:1.051;stroke-linecap:butt;stroke-linejoin:miter;stroke-miterlimit:4;stroke-opacity:1;stroke-dasharray:none"
           d="M 0,0 -3.354,-2.033" /></g><g
         transform="translate(550.9897,157.6929)"
         id="g896"><path
           inkscape:connector-curvature="0"
           id="path898"
           style="fill:none;stroke:#ffffff;stroke-width:1.051;stroke-linecap:butt;stroke-linejoin:miter;stroke-miterlimit:4;stroke-opacity:1;stroke-dasharray:none"
           d="M 0,0 -3.625,-1.483" /></g><g
         transform="translate(548.8452,164.3979)"
         id="g900"><path
           inkscape:connector-curvature="0"
           id="path902"
           style="fill:none;stroke:#ffffff;stroke-width:1.051;stroke-linecap:butt;stroke-linejoin:miter;stroke-miterlimit:4;stroke-opacity:1;stroke-dasharray:none"
           d="M 0,0 -3.815,-0.9" /></g><g
         transform="translate(547.7729,171.3521)"
         id="g904"><path
           inkscape:connector-curvature="0"
           id="path906"
           style="fill:none;stroke:#ffffff;stroke-width:1.051;stroke-linecap:butt;stroke-linejoin:miter;stroke-miterlimit:4;stroke-opacity:1;stroke-dasharray:none"
           d="M 0,0 -3.908,-0.292" /></g><g
         transform="translate(547.8022,178.3906)"
         id="g908"><path
           inkscape:connector-curvature="0"
           id="path910"
           style="fill:none;stroke:#ffffff;stroke-width:1.051;stroke-linecap:butt;stroke-linejoin:miter;stroke-miterlimit:4;stroke-opacity:1;stroke-dasharray:none"
           d="M 0,0 -3.905,0.325" /></g><g
         transform="translate(548.9331,185.335)"
         id="g912"><path
           inkscape:connector-curvature="0"
           id="path914"
           style="fill:none;stroke:#ffffff;stroke-width:1.051;stroke-linecap:butt;stroke-linejoin:miter;stroke-miterlimit:4;stroke-opacity:1;stroke-dasharray:none"
           d="M 0,0 -3.805,0.934" /></g><g
         transform="translate(551.1392,192.02)"
         id="g916"><path
           inkscape:connector-curvature="0"
           id="path918"
           style="fill:none;stroke:#ffffff;stroke-width:1.051;stroke-linecap:butt;stroke-linejoin:miter;stroke-miterlimit:4;stroke-opacity:1;stroke-dasharray:none"
           d="M 0,0 -3.615,1.518" /></g><g
         transform="translate(554.3618,198.2759)"
         id="g920"><path
           inkscape:connector-curvature="0"
           id="path922"
           style="fill:none;stroke:#ffffff;stroke-width:1.051;stroke-linecap:butt;stroke-linejoin:miter;stroke-miterlimit:4;stroke-opacity:1;stroke-dasharray:none"
           d="M 0,0 -3.335,2.063" /></g><g
         transform="translate(558.5229,203.9512)"
         id="g924"><path
           inkscape:connector-curvature="0"
           id="path926"
           style="fill:none;stroke:#ffffff;stroke-width:1.051;stroke-linecap:butt;stroke-linejoin:miter;stroke-miterlimit:4;stroke-opacity:1;stroke-dasharray:none"
           d="M 0,0 -2.969,2.557" /></g><g
         transform="translate(563.5249,208.9033)"
         id="g928"><path
           inkscape:connector-curvature="0"
           id="path930"
           style="fill:none;stroke:#ffffff;stroke-width:1.051;stroke-linecap:butt;stroke-linejoin:miter;stroke-miterlimit:4;stroke-opacity:1;stroke-dasharray:none"
           d="M 0,0 -2.536,2.992" /></g><g
         transform="translate(569.2368,213.0132)"
         id="g932"><path
           inkscape:connector-curvature="0"
           id="path934"
           style="fill:none;stroke:#ffffff;stroke-width:1.051;stroke-linecap:butt;stroke-linejoin:miter;stroke-miterlimit:4;stroke-opacity:1;stroke-dasharray:none"
           d="M 0,0 -2.033,3.353" /></g><g
         transform="translate(575.519,216.1792)"
         id="g936"><path
           inkscape:connector-curvature="0"
           id="path938"
           style="fill:none;stroke:#ffffff;stroke-width:1.051;stroke-linecap:butt;stroke-linejoin:miter;stroke-miterlimit:4;stroke-opacity:1;stroke-dasharray:none"
           d="M 0,0 -1.483,3.627" /></g><g
         transform="translate(582.2241,218.3184)"
         id="g940"><path
           inkscape:connector-curvature="0"
           id="path942"
           style="fill:none;stroke:#ffffff;stroke-width:1.051;stroke-linecap:butt;stroke-linejoin:miter;stroke-miterlimit:4;stroke-opacity:1;stroke-dasharray:none"
           d="M 0,0 -0.897,3.818" /></g><g
         transform="translate(589.1782,219.3882)"
         id="g944"><path
           inkscape:connector-curvature="0"
           id="path946"
           style="fill:none;stroke:#ffffff;stroke-width:1.051;stroke-linecap:butt;stroke-linejoin:miter;stroke-miterlimit:4;stroke-opacity:1;stroke-dasharray:none"
           d="M 0,0 -0.289,3.911" /></g><g
         transform="translate(654.2993,175.0771)"
         id="g948"><path
           inkscape:connector-curvature="0"
           id="path950"
           style="fill:none;stroke:#ee3338;stroke-width:1.66199994;stroke-linecap:butt;stroke-linejoin:miter;stroke-miterlimit:4;stroke-opacity:1;stroke-dasharray:none"
           d="m 0,0 c 0,-34.142 -27.677,-61.821 -61.817,-61.821 -34.145,0 -61.822,27.679 -61.822,61.821 0,34.141 27.677,61.818 61.822,61.818 C -27.677,61.818 0,34.141 0,0 z" /></g><g
         transform="translate(628.8569,175.0771)"
         id="g952"><path
           inkscape:connector-curvature="0"
           id="path954"
           style="fill:none;stroke:#ffffff;stroke-width:2.89199996;stroke-linecap:butt;stroke-linejoin:miter;stroke-miterlimit:4;stroke-opacity:1;stroke-dasharray:none"
           d="m 0,0 c 0,-20.091 -16.284,-36.377 -36.375,-36.377 -20.091,0 -36.377,16.286 -36.377,36.377 0,20.091 16.286,36.377 36.377,36.377 C -16.284,36.377 0,20.091 0,0 z" /></g><g
         transform="translate(592.48,141.6982)"
         id="g956"><path
           inkscape:connector-curvature="0"
           id="path958"
           style="fill:#ee3338;fill-opacity:1;fill-rule:nonzero;stroke:none"
           d="m 0,0 c -18.404,0 -33.377,14.974 -33.377,33.379 0,18.404 14.973,33.377 33.377,33.377 18.405,0 33.38,-14.973 33.38,-33.377 C 33.38,14.974 18.405,0 0,0" /></g><g
         transform="translate(592.48,211.3462)"
         id="g960"><path
           inkscape:connector-curvature="0"
           id="path962"
           style="fill:#373535;fill-opacity:1;fill-rule:nonzero;stroke:none"
           d="m 0,0 c -19.999,0 -36.269,-16.27 -36.269,-36.269 0,-20 16.27,-36.271 36.269,-36.271 20,0 36.271,16.271 36.271,36.271 C 36.271,-16.27 20,0 0,0 m 0,-5.785 c 16.839,0 30.487,-13.647 30.487,-30.484 0,-16.837 -13.648,-30.486 -30.487,-30.486 -16.835,0 -30.484,13.649 -30.484,30.486 0,16.837 13.649,30.484 30.484,30.484" /></g><g
         transform="translate(592.3403,194.3818)"
         id="g964"><path
           inkscape:connector-curvature="0"
           id="path966"
           style="fill:#ffffff;fill-opacity:1;fill-rule:nonzero;stroke:none"
           d="m 0,0 5.754,-11.661 12.868,-1.869 -9.309,-9.075 2.196,-12.813 -11.509,6.05 -11.508,-6.05 2.197,12.813 -9.308,9.075 12.866,1.869 L 0,0 z" /></g><g
         transform="translate(592.3403,194.3818)"
         id="g968"><path
           inkscape:connector-curvature="0"
           id="path970"
           style="fill:none;stroke:#373535;stroke-width:1.44599998;stroke-linecap:butt;stroke-linejoin:miter;stroke-miterlimit:4;stroke-opacity:1;stroke-dasharray:none"
           d="m 0,0 5.754,-11.661 12.868,-1.869 -9.309,-9.075 2.196,-12.813 -11.509,6.05 -11.508,-6.05 2.197,12.813 -9.308,9.075 12.866,1.869 L 0,0 z" /></g><g
         transform="translate(618.1147,175.0771)"
         id="g972"><path
           inkscape:connector-curvature="0"
           id="path974"
           style="fill:none;stroke:#ffffff;stroke-width:1.44599998;stroke-linecap:butt;stroke-linejoin:miter;stroke-miterlimit:4;stroke-opacity:1;stroke-dasharray:none"
           d="m 0,0 c 0,-14.157 -11.477,-25.635 -25.633,-25.635 -14.157,0 -25.636,11.478 -25.636,25.635 0,14.157 11.479,25.633 25.636,25.633 C -11.477,25.633 0,14.157 0,0 z" /></g></g></g></svg>